<?xml version="1.0" encoding="UTF-8"?>
<svg id="Capa_1" data-name="Capa 1" xmlns="http://www.w3.org/2000/svg" viewBox="0 0 1434.67 1191.11">
  <path d="m1309.58,0h-49c-1.66,0-3,1.34-3,3s1.34,3,3,3h49c1.66,0,3-1.34,3-3s-1.34-3-3-3h0Zm-98,0h-49c-1.66,0-3,1.34-3,3s1.34,3,3,3h49c1.66,0,3-1.34,3-3s-1.34-3-3-3h0Zm-98,0h-49c-1.66,0-3,1.34-3,3s1.34,3,3,3h49c1.66,0,3-1.34,3-3s-1.34-3-3-3h0Zm-98,0h-49c-1.66,0-3,1.34-3,3s1.34,3,3,3h49c1.66,0,3-1.34,3-3s-1.34-3-3-3h0Zm-98,0h-49c-1.66,0-3,1.34-3,3s1.34,3,3,3h49c1.66,0,3-1.34,3-3s-1.34-3-3-3h0Zm-98,0h-49c-1.66,0-3,1.34-3,3s1.34,3,3,3h49c1.66,0,3-1.34,3-3s-1.34-3-3-3h0Zm-98,0h-49c-1.66,0-3,1.34-3,3s1.34,3,3,3h49c1.66,0,3-1.34,3-3s-1.34-3-3-3h0Zm-98,0h-49c-1.66,0-3,1.34-3,3s1.34,3,3,3h49c1.66,0,3-1.34,3-3s-1.34-3-3-3h0Zm-98,0h-49c-1.66,0-3,1.34-3,3s1.34,3,3,3h49c1.66,0,3-1.34,3-3s-1.34-3-3-3h0Zm-98,0h-49c-1.66,0-3,1.34-3,3s1.34,3,3,3h49c1.66,0,3-1.34,3-3s-1.34-3-3-3h0Zm-98,0h-49c-1.66,0-3,1.34-3,3s1.34,3,3,3h49c1.66,0,3-1.34,3-3s-1.34-3-3-3h0Zm-98,0h-49c-1.66,0-3,1.34-3,3s1.34,3,3,3h49c1.66,0,3-1.34,3-3s-1.34-3-3-3h0Zm-98,0h-49c-1.66,0-3,1.34-3,3s1.34,3,3,3h49c1.66,0,3-1.34,3-3s-1.34-3-3-3h0ZM35.58,0h-8.49s-.03,0-.04,0c0,0,0,0-.01,0-.01,0-.02,0-.03,0,0,0,0,0-.01,0-.01,0-.02,0-.03,0,0,0-.01,0-.02,0,0,0-.02,0-.03,0,0,0-.01,0-.02,0,0,0-.02,0-.02,0,0,0-.01,0-.02,0,0,0-.02,0-.02,0,0,0-.01,0-.02,0,0,0-.02,0-.03,0,0,0-.01,0-.02,0,0,0-.02,0-.02,0,0,0-.01,0-.02,0,0,0-.02,0-.02,0,0,0-.01,0-.02,0,0,0-.02,0-.02,0,0,0-.01,0-.02,0,0,0-.02,0-.02,0,0,0-.01,0-.02,0,0,0-.02,0-.02,0,0,0-.01,0-.02,0,0,0-.01,0-.02,0,0,0-.01,0-.02,0,0,0-.02,0-.02,0,0,0-.01,0-.02,0,0,0-.02,0-.03,0,0,0-.01,0-.02,0,0,0-.02,0-.03,0,0,0-.01,0-.02,0,0,0-.02,0-.02,0,0,0-.01,0-.02,0,0,0-.02,0-.03,0,0,0-.01,0-.02,0-.01,0-.02,0-.03,0,0,0,0,0,0,0-.01,0-.02,0-.03,0,0,0,0,0-.01,0-.01,0-.03,0-.04,0,0,0-.01,0-.02,0,0,0-.02,0-.02,0,0,0-.01,0-.02,0,0,0-.02,0-.03,0,0,0-.01,0-.02,0,0,0-.02,0-.02,0,0,0-.01,0-.02,0,0,0-.01,0-.02,0,0,0-.01,0-.02,0,0,0-.02,0-.02,0,0,0-.01,0-.02,0,0,0-.02,0-.02,0,0,0-.01,0-.02,0,0,0-.01,0-.02,0,0,0-.01,0-.02,0,0,0-.01,0-.02,0,0,0-.01,0-.02,0,0,0-.02,0-.02,0,0,0-.01,0-.02,0,0,0-.02,0-.02,0,0,0-.01,0-.02,0,0,0-.01,0-.02,0,0,0-.01,0-.02,0,0,0-.01,0-.02,0,0,0-.01,0-.02,0,0,0-.01,0-.02,0,0,0-.01,0-.02,0,0,0-.02,0-.02,0,0,0-.01,0-.02,0,0,0-.01,0-.02,0,0,0-.01,0-.02,0,0,0-.01,0-.02,0,0,0-.01,0-.02,0,0,0-.02,0-.02,0,0,0-.01,0-.02,0,0,0-.02,0-.03,0,0,0-.01,0-.02,0,0,0-.01,0-.02,0,0,0-.01,0-.02,0,0,0-.01,0-.02,0,0,0-.02,0-.02,0-.01,0-.03,0-.04,0,0,0-.01,0-.02,0,0,0-.02,0-.02,0,0,0-.02,0-.03,0,0,0-.01,0-.02,0,0,0-.02,0-.02,0,0,0-.01,0-.02,0,0,0-.01,0-.02,0,0,0-.02,0-.02,0,0,0-.02,0-.02,0,0,0-.01,0-.02,0,0,0-.02,0-.02,0,0,0-.01,0-.02,0,0,0-.02,0-.02,0,0,0-.01,0-.02,0,0,0-.01,0-.02,0,0,0-.02,0-.02,0,0,0-.01,0-.02,0,0,0-.01,0-.02,0,0,0-.01,0-.02,0,0,0-.02,0-.02,0,0,0-.01,0-.02,0,0,0-.02,0-.02,0,0,0-.01,0-.02,0,0,0-.02,0-.02,0,0,0-.01,0-.02,0,0,0-.02,0-.02,0,0,0-.01,0-.02,0,0,0-.01,0-.02,0,0,0-.02,0-.02,0,0,0-.01,0-.02,0,0,0-.01,0-.02,0,0,0-.02,0-.02,0,0,0-.01,0-.02,0,0,0-.01,0-.02,0,0,0-.01,0-.02,0,0,0-.01,0-.02,0,0,0-.01,0-.02,0-.01,0-.02,0-.03,0,0,0,0,0,0,0-.01,0-.02,0-.03,0,0,0,0,0,0,0,0,0-.01,0-.02,0-.02,0-.04,0-.06,0,0,0,0,0,0,0,0,0-.02,0-.03,0,0,0-.01,0-.02,0,0,0-.02,0-.02,0,0,0-.01,0-.02,0,0,0-.02,0-.03,0,0,0-.01,0-.02,0,0,0-.02,0-.03,0,0,0-.01,0-.02,0,0,0-.02,0-.02,0,0,0-.01,0-.02,0,0,0-.01,0-.02,0,0,0-.02,0-.02,0,0,0-.01,0-.02,0,0,0-.01,0-.02,0,0,0-.01,0-.02,0,0,0-.01,0-.02,0,0,0-.02,0-.02,0,0,0-.01,0-.02,0,0,0-.01,0-.02,0,0,0-.01,0-.02,0,0,0-.01,0-.02,0,0,0-.01,0-.02,0,0,0-.02,0-.02,0,0,0-.01,0-.02,0,0,0-.02,0-.02,0,0,0-.01,0-.02,0,0,0-.02,0-.02,0,0,0-.01,0-.02,0,0,0-.02,0-.03,0,0,0,0,0-.01,0,0,0-.02,0-.03,0,0,0,0,0,0,0-.01,0-.02,0-.03,0,0,0,0,0,0,0-.01,0-.02,0-.03,0,0,0,0,0,0,0-.05,0-.1.01-.15.02,0,0,0,0-.01,0,0,0-.02,0-.03,0,0,0-.01,0-.01,0,0,0-.02,0-.03,0,0,0,0,0-.01,0,0,0-.02,0-.03,0,0,0,0,0-.01,0,0,0-.02,0-.03,0,0,0-.01,0-.01,0,0,0-.02,0-.02,0,0,0-.01,0-.02,0,0,0-.02,0-.02,0,0,0-.01,0-.02,0,0,0-.01,0-.02,0,0,0-.01,0-.02,0,0,0-.02,0-.02,0,0,0-.01,0-.02,0,0,0-.02,0-.03,0,0,0,0,0-.02,0,0,0-.02,0-.03,0,0,0,0,0-.01,0,0,0-.02,0-.03,0,0,0,0,0-.01,0-.01,0-.02,0-.03,0,0,0,0,0,0,0,0,0-.02,0-.03,0,0,0,0,0-.01,0,0,0-.02,0-.03,0,0,0,0,0-.01,0-.01,0-.02,0-.03,0,0,0,0,0-.01,0-.01,0-.02,0-.03,0,0,0,0,0,0,0-.01,0-.02,0-.04,0,0,0,0,0,0,0-.07.01-.15.02-.23.04,0,0,0,0-.01,0-.01,0-.02,0-.03,0,0,0,0,0,0,0-.01,0-.02,0-.03,0,0,0,0,0-.01,0,0,0-.02,0-.03,0,0,0,0,0-.01,0,0,0-.02,0-.03,0,0,0,0,0-.01,0,0,0-.02,0-.03,0,0,0,0,0,0,0-.01,0-.02,0-.03,0,0,0,0,0,0,0,0,0-.02,0-.03,0,0,0,0,0-.01,0,0,0-.02,0-.03,0,0,0,0,0-.02,0,0,0-.02,0-.03,0,0,0,0,0-.01,0,0,0-.02,0-.03,0,0,0,0,0-.01,0,0,0-.02,0-.03,0,0,0,0,0-.01,0,0,0-.02,0-.03,0,0,0,0,0-.01,0,0,0-.02,0-.03,0,0,0,0,0,0,0-.01,0-.02,0-.03,0,0,0,0,0,0,0-.01,0-.02,0-.03,0,0,0,0,0,0,0-.01,0-.02,0-.03,0,0,0,0,0,0,0-.1.02-.21.04-.31.06,0,0,0,0,0,0-.01,0-.02,0-.03,0,0,0,0,0,0,0-.01,0-.02,0-.03,0,0,0,0,0,0,0-.01,0-.02,0-.03,0,0,0,0,0,0,0-.01,0-.02,0-.03,0,0,0,0,0,0,0-.01,0-.02,0-.03,0,0,0,0,0,0,0-.01,0-.02,0-.03,0,0,0,0,0,0,0-.01,0-.02,0-.03,0,0,0,0,0,0,0-.01,0-.02,0-.03,0,0,0,0,0-.01,0,0,0-.02,0-.03,0,0,0,0,0,0,0-.01,0-.02,0-.03,0,0,0,0,0,0,0-.03,0-.05.01-.07.02,0,0,0,0,0,0-.13.03-.26.06-.38.09,0,0,0,0,0,0-.01,0-.02,0-.04,0,0,0,0,0,0,0-.01,0-.02,0-.03,0,0,0,0,0,0,0-.01,0-.02,0-.03,0,0,0,0,0,0,0-.01,0-.02,0-.03,0,0,0,0,0,0,0-.01,0-.02,0-.03,0,0,0,0,0,0,0-.01,0-.02,0-.03,0,0,0,0,0,0,0-.01,0-.02,0-.03,0,0,0,0,0,0,0-.01,0-.02,0-.03,0,0,0,0,0,0,0-.01,0-.02,0-.04,0h0c-.19.05-.39.1-.58.15h0s-.03,0-.04.01h0s-.02,0-.04.01c0,0,0,0,0,0-.01,0-.02,0-.04.01h0s-.02,0-.04.01c0,0,0,0,0,0-.03,0-.05.01-.08.02h0C8.88,4.15.93,13.61.08,25.04c-.12,1.65,1.12,3.09,2.77,3.21.08,0,.15,0,.23,0,1.56,0,2.87-1.2,2.99-2.78.82-10.93,10.05-19.49,21.03-19.49h8.49c1.66,0,3-1.34,3-3s-1.34-3-3-3h0ZM3,71.04c-1.66,0-3,1.34-3,3v49c0,1.66,1.34,3,3,3s3-1.34,3-3v-49c0-1.66-1.34-3-3-3h0Zm0,98c-1.66,0-3,1.34-3,3v49c0,1.66,1.34,3,3,3s3-1.34,3-3v-49c0-1.66-1.34-3-3-3h0Zm0,98c-1.66,0-3,1.34-3,3v49c0,1.66,1.34,3,3,3s3-1.34,3-3v-49c0-1.66-1.34-3-3-3h0Zm0,98c-1.66,0-3,1.34-3,3v49c0,1.66,1.34,3,3,3s3-1.34,3-3v-49c0-1.66-1.34-3-3-3h0Zm0,98c-1.66,0-3,1.34-3,3v49c0,1.66,1.34,3,3,3s3-1.34,3-3v-49c0-1.66-1.34-3-3-3h0Zm802.55,722.07h-49c-1.66,0-3,1.34-3,3s1.34,3,3,3h49c1.66,0,3-1.34,3-3s-1.34-3-3-3h0Zm98,0h-49c-1.66,0-3,1.34-3,3s1.34,3,3,3h49c1.66,0,3-1.34,3-3s-1.34-3-3-3h0Zm98,0h-49c-1.66,0-3,1.34-3,3s1.34,3,3,3h49c1.66,0,3-1.34,3-3s-1.34-3-3-3h0Zm98,0h-49c-1.66,0-3,1.34-3,3s1.34,3,3,3h49c1.66,0,3-1.34,3-3s-1.34-3-3-3h0Zm98,0h-49c-1.66,0-3,1.34-3,3s1.34,3,3,3h49c1.66,0,3-1.34,3-3s-1.34-3-3-3h0Zm98,0h-49c-1.66,0-3,1.34-3,3s1.34,3,3,3h49c1.66,0,3-1.34,3-3s-1.34-3-3-3h0Zm98,0h-49c-1.66,0-3,1.34-3,3s1.34,3,3,3h49c1.66,0,3-1.34,3-3s-1.34-3-3-3h0Zm38.12-65.5c-1.66,0-3,1.34-3,3v41.42c0,1.98-.27,3.95-.81,5.83-.46,1.59.46,3.25,2.06,3.71.28.08.55.12.83.12,1.3,0,2.49-.85,2.88-2.16.42-1.45.71-2.94.89-4.48,0,0,0,0,0,0,0-.05.01-.11.02-.16,0,0,0,0,0,0,0-.04,0-.08.01-.11,0,0,0,0,0-.01,0-.01,0-.02,0-.04,0,0,0,0,0-.01,0-.02,0-.05,0-.07,0,0,0,0,0,0,0-.01,0-.02,0-.03,0,0,0-.01,0-.02,0-.01,0-.02,0-.03,0,0,0,0,0-.01,0-.02,0-.04,0-.07,0,0,0-.01,0-.02,0-.01,0-.02,0-.03,0,0,0-.01,0-.02,0-.04,0-.07,0-.11,0,0,0-.01,0-.02,0-.01,0-.02,0-.03,0,0,0,0,0-.01,0-.02,0-.04,0-.06,0,0,0-.01,0-.02,0,0,0-.02,0-.03v-.02s0-.02,0-.03c0-.01,0-.03,0-.04v-.03s0-.01,0-.02c0,0,0-.02,0-.03,0,0,0-.02,0-.02,0-.01,0-.03,0-.04,0,0,0-.02,0-.03,0,0,0-.02,0-.03s0-.02,0-.03c0,0,0-.02,0-.03,0-.01,0-.03,0-.04,0-.01,0-.02,0-.03,0,0,0-.02,0-.03,0,0,0-.02,0-.03,0-.01,0-.02,0-.03,0,0,0-.01,0-.02,0-.02,0-.03,0-.05,0,0,0-.02,0-.02,0-.01,0-.02,0-.03,0,0,0-.02,0-.02,0-.02,0-.03,0-.05,0,0,0,0,0-.01,0-.01,0-.03,0-.04,0,0,0-.01,0-.02,0-.01,0-.02,0-.03,0,0,0-.01,0-.02,0-.02,0-.03,0-.05,0,0,0-.01,0-.02,0-.01,0-.02,0-.03,0,0,0-.02,0-.02,0-.01,0-.03,0-.04,0,0,0-.02,0-.02,0-.01,0-.03,0-.04,0,0,0-.01,0-.02,0-.01,0-.02,0-.03,0,0,0-.01,0-.02,0-.02,0-.03,0-.05,0,0,0,0,0-.01,0-.01,0-.03,0-.04,0,0,0-.01,0-.02,0-.01,0-.03,0-.04,0,0,0,0,0,0v-.05s0-.01,0-.02c0-.01,0-.03,0-.04,0,0,0,0,0-.01,0-.02,0-.03,0-.05,0,0,0,0,0-.01,0-.01,0-.03,0-.04,0,0,0-.01,0-.02,0-.01,0-.03,0-.04,0,0,0,0,0-.02,0-.02,0-.03,0-.05,0,0,0-.01,0-.02,0-.01,0-.03,0-.04,0,0,0-.01,0-.02,0-.02,0-.04,0-.05,0,0,0,0,0,0,0-.02,0-.03,0-.05,0,0,0-.01,0-.02,0-.01,0-.03,0-.04h0s0-.05,0-.07h0s0-.04,0-.06c0,0,0-.01,0-.02v-41.47c0-1.66-1.34-3-3-3h0Zm0-98c-1.66,0-3,1.34-3,3v49c0,1.66,1.34,3,3,3s3-1.34,3-3v-49c0-1.66-1.34-3-3-3h0Zm0-98c-1.66,0-3,1.34-3,3v49c0,1.66,1.34,3,3,3s3-1.34,3-3v-49c0-1.66-1.34-3-3-3h0Zm0-98c-1.66,0-3,1.34-3,3v49c0,1.66,1.34,3,3,3s3-1.34,3-3v-49c0-1.66-1.34-3-3-3h0Zm0-98c-1.66,0-3,1.34-3,3v49c0,1.66,1.34,3,3,3s3-1.34,3-3v-49c0-1.66-1.34-3-3-3h0Zm0-98c-1.66,0-3,1.34-3,3v49c0,1.66,1.34,3,3,3s3-1.34,3-3v-49c0-1.66-1.34-3-3-3h0Zm0-98c-1.66,0-3,1.34-3,3v49c0,1.66,1.34,3,3,3s3-1.34,3-3v-49c0-1.66-1.34-3-3-3h0Zm0-98c-1.66,0-3,1.34-3,3v49c0,1.66,1.34,3,3,3s3-1.34,3-3v-49c0-1.66-1.34-3-3-3h0Zm0-98c-1.66,0-3,1.34-3,3v49c0,1.66,1.34,3,3,3s3-1.34,3-3v-49c0-1.66-1.34-3-3-3h0Zm0-98c-1.66,0-3,1.34-3,3v49c0,1.66,1.34,3,3,3s3-1.34,3-3v-49c0-1.66-1.34-3-3-3h0Zm0-98c-1.66,0-3,1.34-3,3v49c0,1.66,1.34,3,3,3s3-1.34,3-3v-49c0-1.66-1.34-3-3-3h0Zm0-98c-1.66,0-3,1.34-3,3v49c0,1.66,1.34,3,3,3s3-1.34,3-3v-49c0-1.66-1.34-3-3-3h0Zm-24.09-41.61h-49c-1.66,0-3,1.34-3,3s1.34,3,3,3h49c2.92,0,5.74.58,8.38,1.73.39.17.79.25,1.19.25,1.16,0,2.26-.68,2.75-1.81.66-1.52-.04-3.29-1.56-3.95-1.3-.56-2.66-1.03-4.06-1.39h0s-.03,0-.04-.01c0,0,0,0,0,0-.01,0-.02,0-.04,0,0,0,0,0,0,0-.01,0-.02,0-.04,0,0,0,0,0,0,0-.01,0-.02,0-.04,0,0,0,0,0,0,0-.01,0-.02,0-.04,0,0,0,0,0,0,0-.01,0-.02,0-.03,0,0,0,0,0,0,0-.01,0-.02,0-.03,0,0,0,0,0,0,0-.01,0-.02,0-.03,0,0,0,0,0,0,0-.01,0-.02,0-.03,0,0,0,0,0-.01,0,0,0-.02,0-.03,0,0,0,0,0-.01,0,0,0-.02,0-.03,0,0,0-.01,0-.02,0,0,0-.02,0-.03,0,0,0,0,0-.01,0,0,0-.02,0-.03,0,0,0,0,0-.01,0,0,0-.02,0-.03,0,0,0,0,0-.01,0,0,0-.02,0-.03,0,0,0,0,0-.01,0,0,0-.02,0-.03,0,0,0-.01,0-.02,0,0,0-.02,0-.02,0,0,0-.01,0-.02,0,0,0-.01,0-.02,0,0,0-.01,0-.02,0,0,0-.01,0-.02,0,0,0-.02,0-.02,0,0,0,0,0-.01,0,0,0-.02,0-.03,0,0,0,0,0-.01,0-.01,0-.02,0-.03,0,0,0,0,0,0,0-.01,0-.02,0-.03,0,0,0,0,0-.01,0-.1-.02-.21-.04-.31-.07,0,0,0,0,0,0-.03,0-.05-.01-.08-.02,0,0,0,0,0,0-.03,0-.05-.01-.08-.02,0,0,0,0,0,0-.03,0-.05-.01-.08-.02,0,0,0,0,0,0-.01,0-.03,0-.04,0,0,0,0,0,0,0-.01,0-.02,0-.04,0,0,0,0,0,0,0-.01,0-.03,0-.04,0,0,0,0,0,0,0-.01,0-.03,0-.04,0,0,0,0,0,0,0-.03,0-.05,0-.08-.01,0,0,0,0,0,0-.01,0-.03,0-.04,0,0,0,0,0,0,0-.01,0-.03,0-.04,0,0,0,0,0,0,0-.01,0-.03,0-.04,0,0,0,0,0,0,0-.01,0-.02,0-.04,0,0,0,0,0,0,0-.01,0-.03,0-.04,0,0,0,0,0,0,0-.01,0-.03,0-.04,0,0,0,0,0,0,0-.01,0-.02,0-.04,0,0,0,0,0,0,0-.01,0-.02,0-.04,0,0,0,0,0,0,0-.01,0-.02,0-.04,0,0,0,0,0,0,0-.01,0-.03,0-.04,0,0,0,0,0,0,0-.01,0-.03,0-.04,0,0,0,0,0,0,0-.01,0-.03,0-.04,0,0,0,0,0,0,0-.45-.07-.89-.14-1.35-.19,0,0,0,0,0,0-.01,0-.03,0-.04,0,0,0,0,0,0,0-.04,0-.08,0-.13-.01,0,0,0,0,0,0-.01,0-.03,0-.04,0,0,0,0,0,0,0-.01,0-.03,0-.04,0,0,0,0,0,0,0-.01,0-.03,0-.04,0,0,0,0,0,0,0-.01,0-.03,0-.04,0,0,0,0,0,0,0-.01,0-.02,0-.04,0,0,0,0,0,0,0-.01,0-.02,0-.04,0,0,0,0,0,0,0-.01,0-.03,0-.04,0,0,0,0,0,0,0-.01,0-.03,0-.04,0,0,0,0,0,0,0-.01,0-.03,0-.04,0,0,0,0,0,0,0-.01,0-.03,0-.04,0,0,0,0,0,0,0-.01,0-.03,0-.04,0h0s-.03,0-.04,0c0,0,0,0,0,0-.01,0-.03,0-.04,0,0,0,0,0,0,0-.01,0-.03,0-.04,0,0,0,0,0,0,0-.03,0-.05,0-.08,0,0,0,0,0,0,0-.17-.01-.34-.03-.51-.04,0,0,0,0,0,0-.03,0-.05,0-.08,0,0,0,0,0,0,0h-.04s0,0,0,0c-.01,0-.02,0-.03,0,0,0,0,0-.01,0-.01,0-.02,0-.03,0,0,0,0,0-.01,0,0,0-.02,0-.03,0,0,0,0,0-.01,0-.01,0-.02,0-.03,0,0,0,0,0-.01,0,0,0-.02,0-.03,0,0,0-.01,0-.02,0,0,0-.02,0-.03,0,0,0-.01,0-.02,0,0,0-.02,0-.03,0,0,0-.01,0-.02,0,0,0-.02,0-.03,0,0,0,0,0-.01,0,0,0-.02,0-.03,0,0,0-.01,0-.02,0,0,0-.02,0-.03,0,0,0-.01,0-.02,0,0,0-.02,0-.03,0,0,0-.01,0-.02,0,0,0-.02,0-.03,0,0,0-.01,0-.02,0,0,0-.02,0-.03,0,0,0-.01,0-.02,0,0,0-.02,0-.02,0,0,0-.01,0-.02,0,0,0-.02,0-.02,0,0,0-.01,0-.02,0,0,0-.02,0-.02,0,0,0-.01,0-.02,0,0,0-.02,0-.02,0,0,0-.01,0-.02,0,0,0-.02,0-.02,0,0,0-.01,0-.02,0,0,0-.02,0-.03,0,0,0-.01,0-.02,0,0,0-.02,0-.03,0,0,0-.01,0-.02,0,0,0-.02,0-.03,0,0,0-.01,0-.02,0,0,0-.02,0-.02,0,0,0-.01,0-.02,0,0,0-.02,0-.03,0,0,0-.01,0-.02,0,0,0-.02,0-.03,0,0,0-.01,0-.02,0,0,0-.02,0-.03,0,0,0-.01,0-.02,0,0,0-.02,0-.02,0,0,0-.01,0-.02,0,0,0-.02,0-.03,0,0,0-.01,0-.02,0,0,0-.02,0-.03,0,0,0-.01,0-.02,0,0,0-.02,0-.03,0,0,0-.01,0-.02,0,0,0-.02,0-.02,0,0,0-.01,0-.02,0,0,0-.02,0-.03,0,0,0-.01,0-.02,0,0,0-.02,0-.03,0,0,0-.01,0-.02,0,0,0-.01,0-.02,0,0,0-.01,0-.02,0,0,0-.01,0-.02,0,0,0-.01,0-.02,0,0,0-.02,0-.03,0,0,0-.01,0-.02,0,0,0-.02,0-.03,0-.01,0-.03,0-.04,0h0Z" style="fill: #fff;"/>
</svg>